<?xml version="1.0" encoding="UTF-8" standalone="no"?>
<!DOCTYPE svg PUBLIC "-//W3C//DTD SVG 1.0//EN" "http://www.w3.org/TR/2001/PR-SVG-20010719/DTD/svg10.dtd">
<svg width="58cm" height="47cm" viewBox="379 179 1156 926" xmlns="http://www.w3.org/2000/svg" xmlns:xlink="http://www.w3.org/1999/xlink">
  <g>
    <rect style="fill: #ffffff" x="900" y="180" width="134.775" height="44"/>
    <rect style="fill: none; fill-opacity:0; stroke-width: 2; stroke: #000000" x="900" y="180" width="134.775" height="44"/>
    <text font-size="12.8" style="fill: #000000;text-anchor:middle;font-family:monospace;font-style:normal;font-weight:normal" x="967.387" y="196">&lt;&lt;abstract&gt;&gt;</text>
    <text font-size="16" style="fill: #000000;text-anchor:middle;font-family:sans-serif;font-style:italic;font-weight:700" x="967.387" y="215">GadgetAvatar</text>
    <rect style="fill: #ffffff" x="900" y="224" width="134.775" height="8"/>
    <rect style="fill: none; fill-opacity:0; stroke-width: 2; stroke: #000000" x="900" y="224" width="134.775" height="8"/>
    <rect style="fill: #ffffff" x="900" y="232" width="134.775" height="8"/>
    <rect style="fill: none; fill-opacity:0; stroke-width: 2; stroke: #000000" x="900" y="232" width="134.775" height="8"/>
  </g>
  <g>
    <rect style="fill: #ffffff" x="595" y="338" width="187.1" height="28"/>
    <rect style="fill: none; fill-opacity:0; stroke-width: 2; stroke: #000000" x="595" y="338" width="187.1" height="28"/>
    <text font-size="16" style="fill: #000000;text-anchor:middle;font-family:sans-serif;font-style:normal;font-weight:700" x="688.55" y="357">element</text>
    <rect style="fill: #ffffff" x="595" y="366" width="187.1" height="180"/>
    <rect style="fill: none; fill-opacity:0; stroke-width: 2; stroke: #000000" x="595" y="366" width="187.1" height="180"/>
    <text font-size="12.8" style="fill: #000000;text-anchor:start;font-family:monospace;font-style:normal;font-weight:normal" x="598" y="380">+x: float</text>
    <text font-size="12.8" style="fill: #000000;text-anchor:start;font-family:monospace;font-style:normal;font-weight:normal" x="598" y="396">+y: float</text>
    <text font-size="12.8" style="fill: #000000;text-anchor:start;font-family:monospace;font-style:normal;font-weight:normal" x="598" y="412">+z: integer</text>
    <text font-size="12.8" style="fill: #000000;text-anchor:start;font-family:monospace;font-style:normal;font-weight:normal" x="598" y="428">+width: float</text>
    <text font-size="12.8" style="fill: #000000;text-anchor:start;font-family:monospace;font-style:normal;font-weight:normal" x="598" y="444">+height</text>
    <text font-size="12.8" style="fill: #000000;text-anchor:start;font-family:monospace;font-style:normal;font-weight:normal" x="598" y="460">+tag: string</text>
    <text font-size="12.8" style="fill: #000000;text-anchor:start;font-family:monospace;font-style:normal;font-weight:normal" x="598" y="476">+opacity: float</text>
    <text font-size="12.8" style="fill: #000000;text-anchor:start;font-family:monospace;font-style:normal;font-weight:normal" x="598" y="492">+rotate: float</text>
    <text font-size="12.8" style="fill: #000000;text-anchor:start;font-family:monospace;font-style:normal;font-weight:normal" x="598" y="508">+css: object</text>
    <text font-size="12.8" style="fill: #000000;text-anchor:start;font-family:monospace;font-style:normal;font-weight:normal" x="598" y="524">+classes: string</text>
    <text font-size="12.8" style="fill: #000000;text-anchor:start;font-family:monospace;font-style:normal;font-weight:normal" x="598" y="540">+initialClasses: string</text>
    <rect style="fill: #ffffff" x="595" y="546" width="187.1" height="8"/>
    <rect style="fill: none; fill-opacity:0; stroke-width: 2; stroke: #000000" x="595" y="546" width="187.1" height="8"/>
  </g>
  <g>
    <rect style="fill: #ffffff" x="380" y="620" width="110.1" height="28"/>
    <rect style="fill: none; fill-opacity:0; stroke-width: 2; stroke: #000000" x="380" y="620" width="110.1" height="28"/>
    <text font-size="16" style="fill: #000000;text-anchor:middle;font-family:sans-serif;font-style:normal;font-weight:700" x="435.05" y="639">image</text>
    <rect style="fill: #ffffff" x="380" y="648" width="110.1" height="20"/>
    <rect style="fill: none; fill-opacity:0; stroke-width: 2; stroke: #000000" x="380" y="648" width="110.1" height="20"/>
    <text font-size="12.8" style="fill: #000000;text-anchor:start;font-family:monospace;font-style:normal;font-weight:normal" x="383" y="662">+file: string</text>
    <rect style="fill: #ffffff" x="380" y="668" width="110.1" height="8"/>
    <rect style="fill: none; fill-opacity:0; stroke-width: 2; stroke: #000000" x="380" y="668" width="110.1" height="8"/>
  </g>
  <g>
    <rect style="fill: #ffffff" x="580" y="620" width="125.5" height="28"/>
    <rect style="fill: none; fill-opacity:0; stroke-width: 2; stroke: #000000" x="580" y="620" width="125.5" height="28"/>
    <text font-size="16" style="fill: #000000;text-anchor:middle;font-family:sans-serif;font-style:normal;font-weight:700" x="642.75" y="639">canvas</text>
    <rect style="fill: #ffffff" x="580" y="648" width="125.5" height="20"/>
    <rect style="fill: none; fill-opacity:0; stroke-width: 2; stroke: #000000" x="580" y="648" width="125.5" height="20"/>
    <text font-size="12.8" style="fill: #000000;text-anchor:start;font-family:monospace;font-style:normal;font-weight:normal" x="583" y="662">+draw: function</text>
    <rect style="fill: #ffffff" x="580" y="668" width="125.5" height="8"/>
    <rect style="fill: none; fill-opacity:0; stroke-width: 2; stroke: #000000" x="580" y="668" width="125.5" height="8"/>
  </g>
  <g>
    <rect style="fill: #ffffff" x="389.976" y="782.992" width="187.1" height="28"/>
    <rect style="fill: none; fill-opacity:0; stroke-width: 2; stroke: #000000" x="389.976" y="782.992" width="187.1" height="28"/>
    <text font-size="16" style="fill: #000000;text-anchor:middle;font-family:sans-serif;font-style:normal;font-weight:700" x="483.526" y="801.992">hexagon</text>
    <rect style="fill: #ffffff" x="389.976" y="810.992" width="187.1" height="36"/>
    <rect style="fill: none; fill-opacity:0; stroke-width: 2; stroke: #000000" x="389.976" y="810.992" width="187.1" height="36"/>
    <text font-size="12.8" style="fill: #000000;text-anchor:start;font-family:monospace;font-style:normal;font-weight:normal" x="392.976" y="824.992">+radius: float</text>
    <text font-size="12.8" style="fill: #000000;text-anchor:start;font-family:monospace;font-style:normal;font-weight:normal" x="392.976" y="840.992">+lineWidthFactor: float</text>
    <rect style="fill: #ffffff" x="389.976" y="846.992" width="187.1" height="8"/>
    <rect style="fill: none; fill-opacity:0; stroke-width: 2; stroke: #000000" x="389.976" y="846.992" width="187.1" height="8"/>
  </g>
  <g>
    <rect style="fill: #ffffff" x="609.976" y="782.992" width="148.6" height="28"/>
    <rect style="fill: none; fill-opacity:0; stroke-width: 2; stroke: #000000" x="609.976" y="782.992" width="148.6" height="28"/>
    <text font-size="16" style="fill: #000000;text-anchor:middle;font-family:sans-serif;font-style:normal;font-weight:700" x="684.276" y="801.992">sprite</text>
    <rect style="fill: #ffffff" x="609.976" y="810.992" width="148.6" height="84"/>
    <rect style="fill: none; fill-opacity:0; stroke-width: 2; stroke: #000000" x="609.976" y="810.992" width="148.6" height="84"/>
    <text font-size="12.8" style="fill: #000000;text-anchor:start;font-family:monospace;font-style:normal;font-weight:normal" x="612.976" y="824.992">+file: string</text>
    <text font-size="12.8" style="fill: #000000;text-anchor:start;font-family:monospace;font-style:normal;font-weight:normal" x="612.976" y="840.992">+clipwith: float</text>
    <text font-size="12.8" style="fill: #000000;text-anchor:start;font-family:monospace;font-style:normal;font-weight:normal" x="612.976" y="856.992">+clipheight: float</text>
    <text font-size="12.8" style="fill: #000000;text-anchor:start;font-family:monospace;font-style:normal;font-weight:normal" x="612.976" y="872.992">+clipx: float</text>
    <text font-size="12.8" style="fill: #000000;text-anchor:start;font-family:monospace;font-style:normal;font-weight:normal" x="612.976" y="888.992">+clipy: float</text>
    <rect style="fill: #ffffff" x="609.976" y="894.992" width="148.6" height="8"/>
    <rect style="fill: none; fill-opacity:0; stroke-width: 2; stroke: #000000" x="609.976" y="894.992" width="148.6" height="8"/>
  </g>
  <g>
    <rect style="fill: #ffffff" x="800" y="620" width="47.1" height="28"/>
    <rect style="fill: none; fill-opacity:0; stroke-width: 2; stroke: #000000" x="800" y="620" width="47.1" height="28"/>
    <text font-size="16" style="fill: #000000;text-anchor:middle;font-family:sans-serif;font-style:normal;font-weight:700" x="823.55" y="639">disk</text>
    <rect style="fill: #ffffff" x="800" y="648" width="47.1" height="8"/>
    <rect style="fill: none; fill-opacity:0; stroke-width: 2; stroke: #000000" x="800" y="648" width="47.1" height="8"/>
    <rect style="fill: #ffffff" x="800" y="656" width="47.1" height="8"/>
    <rect style="fill: none; fill-opacity:0; stroke-width: 2; stroke: #000000" x="800" y="656" width="47.1" height="8"/>
  </g>
  <g>
    <polyline style="fill: none; fill-opacity:0; stroke-width: 2; stroke: #000000" points="967.387,259.244 967.387,297 688.55,297 688.55,336.993 "/>
    <polygon style="fill: #ffffff" points="975.387,259.244 967.387,243.244 959.388,259.244 "/>
    <polygon style="fill: none; fill-opacity:0; stroke-width: 2; stroke: #000000" points="975.387,259.244 967.387,243.244 959.388,259.244 "/>
  </g>
  <g>
    <polyline style="fill: none; fill-opacity:0; stroke-width: 2; stroke: #000000" points="688.55,573.243 688.55,595 435.05,595 435.05,618.993 "/>
    <polygon style="fill: #ffffff" points="696.55,573.243 688.55,557.243 680.55,573.243 "/>
    <polygon style="fill: none; fill-opacity:0; stroke-width: 2; stroke: #000000" points="696.55,573.243 688.55,557.243 680.55,573.243 "/>
  </g>
  <g>
    <polyline style="fill: none; fill-opacity:0; stroke-width: 2; stroke: #000000" points="688.55,573.243 688.55,595 642.75,595 642.75,618.993 "/>
    <polygon style="fill: #ffffff" points="696.55,573.243 688.55,557.243 680.55,573.243 "/>
    <polygon style="fill: none; fill-opacity:0; stroke-width: 2; stroke: #000000" points="696.55,573.243 688.55,557.243 680.55,573.243 "/>
  </g>
  <g>
    <polyline style="fill: none; fill-opacity:0; stroke-width: 2; stroke: #000000" points="688.55,573.243 688.55,595.001 823.55,595.001 823.55,618.994 "/>
    <polygon style="fill: #ffffff" points="696.55,573.243 688.55,557.243 680.55,573.243 "/>
    <polygon style="fill: none; fill-opacity:0; stroke-width: 2; stroke: #000000" points="696.55,573.243 688.55,557.243 680.55,573.243 "/>
  </g>
  <g>
    <polyline style="fill: none; fill-opacity:0; stroke-width: 2; stroke: #000000" points="642.75,695.243 642.75,737.495 483.526,737.495 483.526,781.983 "/>
    <polygon style="fill: #ffffff" points="650.75,695.243 642.75,679.243 634.75,695.243 "/>
    <polygon style="fill: none; fill-opacity:0; stroke-width: 2; stroke: #000000" points="650.75,695.243 642.75,679.243 634.75,695.243 "/>
  </g>
  <g>
    <polyline style="fill: none; fill-opacity:0; stroke-width: 2; stroke: #000000" points="642.75,695.243 642.75,737.496 684.276,737.496 684.276,781.985 "/>
    <polygon style="fill: #ffffff" points="650.75,695.243 642.75,679.243 634.75,695.243 "/>
    <polygon style="fill: none; fill-opacity:0; stroke-width: 2; stroke: #000000" points="650.75,695.243 642.75,679.243 634.75,695.243 "/>
  </g>
  <g>
    <rect style="fill: #ffffff" x="1180" y="338" width="187.1" height="44"/>
    <rect style="fill: none; fill-opacity:0; stroke-width: 2; stroke: #000000" x="1180" y="338" width="187.1" height="44"/>
    <text font-size="12.8" style="fill: #000000;text-anchor:middle;font-family:monospace;font-style:normal;font-weight:normal" x="1273.55" y="354">&lt;&lt;abstract&gt;&gt;</text>
    <text font-size="16" style="fill: #000000;text-anchor:middle;font-family:sans-serif;font-style:normal;font-weight:700" x="1273.55" y="373">GadgetObject3D</text>
    <rect style="fill: #ffffff" x="1180" y="382" width="187.1" height="100"/>
    <rect style="fill: none; fill-opacity:0; stroke-width: 2; stroke: #000000" x="1180" y="382" width="187.1" height="100"/>
    <text font-size="12.8" style="fill: #000000;text-anchor:start;font-family:monospace;font-style:normal;font-weight:normal" x="1183" y="396">+x: float</text>
    <text font-size="12.8" style="fill: #000000;text-anchor:start;font-family:monospace;font-style:normal;font-weight:normal" x="1183" y="412">+y: float</text>
    <text font-size="12.8" style="fill: #000000;text-anchor:start;font-family:monospace;font-style:normal;font-weight:normal" x="1183" y="428">+z: float</text>
    <text font-size="12.8" style="fill: #000000;text-anchor:start;font-family:monospace;font-style:normal;font-weight:normal" x="1183" y="444">+color: string</text>
    <text font-size="12.8" style="fill: #000000;text-anchor:start;font-family:monospace;font-style:normal;font-weight:normal" x="1183" y="460">+castShadow: boolean</text>
    <text font-size="12.8" style="fill: #000000;text-anchor:start;font-family:monospace;font-style:normal;font-weight:normal" x="1183" y="476">+receiveShadow: boolean</text>
    <rect style="fill: #ffffff" x="1180" y="482" width="187.1" height="8"/>
    <rect style="fill: none; fill-opacity:0; stroke-width: 2; stroke: #000000" x="1180" y="482" width="187.1" height="8"/>
  </g>
  <g>
    <rect style="fill: #ffffff" x="980" y="600" width="225.6" height="44"/>
    <rect style="fill: none; fill-opacity:0; stroke-width: 2; stroke: #000000" x="980" y="600" width="225.6" height="44"/>
    <text font-size="12.8" style="fill: #000000;text-anchor:middle;font-family:monospace;font-style:normal;font-weight:normal" x="1092.8" y="616">&lt;&lt;abstract&gt;&gt;</text>
    <text font-size="16" style="fill: #000000;text-anchor:middle;font-family:sans-serif;font-style:normal;font-weight:700" x="1092.8" y="635">GadgetMesh</text>
    <rect style="fill: #ffffff" x="980" y="644" width="225.6" height="148"/>
    <rect style="fill: none; fill-opacity:0; stroke-width: 2; stroke: #000000" x="980" y="644" width="225.6" height="148"/>
    <text font-size="12.8" style="fill: #000000;text-anchor:start;font-family:monospace;font-style:normal;font-weight:normal" x="983" y="658">+rotate: float</text>
    <text font-size="12.8" style="fill: #000000;text-anchor:start;font-family:monospace;font-style:normal;font-weight:normal" x="983" y="674">+rotateX: float</text>
    <text font-size="12.8" style="fill: #000000;text-anchor:start;font-family:monospace;font-style:normal;font-weight:normal" x="983" y="690">+rotateY: float</text>
    <text font-size="12.8" style="fill: #000000;text-anchor:start;font-family:monospace;font-style:normal;font-weight:normal" x="983" y="706">+scale: array of 3 floats</text>
    <text font-size="12.8" style="fill: #000000;text-anchor:start;font-family:monospace;font-style:normal;font-weight:normal" x="983" y="722">+materials: object</text>
    <text font-size="12.8" style="fill: #000000;text-anchor:start;font-family:monospace;font-style:normal;font-weight:normal" x="983" y="738">+smooth: integer</text>
    <text font-size="12.8" style="fill: #000000;text-anchor:start;font-family:monospace;font-style:normal;font-weight:normal" x="983" y="754">+opacity: float</text>
    <text font-size="12.8" style="fill: #000000;text-anchor:start;font-family:monospace;font-style:normal;font-weight:normal" x="983" y="770">+flatShading: boolean</text>
    <text font-size="12.8" style="fill: #000000;text-anchor:start;font-family:monospace;font-style:normal;font-weight:normal" x="983" y="786">+morphing: array of integers</text>
    <rect style="fill: #ffffff" x="980" y="792" width="225.6" height="8"/>
    <rect style="fill: none; fill-opacity:0; stroke-width: 2; stroke: #000000" x="980" y="792" width="225.6" height="8"/>
  </g>
  <g>
    <rect style="fill: #ffffff" x="780" y="880" width="148.6" height="28"/>
    <rect style="fill: none; fill-opacity:0; stroke-width: 2; stroke: #000000" x="780" y="880" width="148.6" height="28"/>
    <text font-size="16" style="fill: #000000;text-anchor:middle;font-family:sans-serif;font-style:normal;font-weight:700" x="854.3" y="899">custommesh3d</text>
    <rect style="fill: #ffffff" x="780" y="908" width="148.6" height="36"/>
    <rect style="fill: none; fill-opacity:0; stroke-width: 2; stroke: #000000" x="780" y="908" width="148.6" height="36"/>
    <text font-size="12.8" style="fill: #000000;text-anchor:start;font-family:monospace;font-style:normal;font-weight:normal" x="783" y="922">+create: function</text>
    <text font-size="12.8" style="fill: #000000;text-anchor:start;font-family:monospace;font-style:normal;font-weight:normal" x="783" y="938">+display: function</text>
    <rect style="fill: #ffffff" x="780" y="944" width="148.6" height="8"/>
    <rect style="fill: none; fill-opacity:0; stroke-width: 2; stroke: #000000" x="780" y="944" width="148.6" height="8"/>
  </g>
  <g>
    <rect style="fill: #ffffff" x="980" y="880" width="140.9" height="28"/>
    <rect style="fill: none; fill-opacity:0; stroke-width: 2; stroke: #000000" x="980" y="880" width="140.9" height="28"/>
    <text font-size="16" style="fill: #000000;text-anchor:middle;font-family:sans-serif;font-style:normal;font-weight:700" x="1050.45" y="899">plane3d</text>
    <rect style="fill: #ffffff" x="980" y="908" width="140.9" height="84"/>
    <rect style="fill: none; fill-opacity:0; stroke-width: 2; stroke: #000000" x="980" y="908" width="140.9" height="84"/>
    <text font-size="12.8" style="fill: #000000;text-anchor:start;font-family:monospace;font-style:normal;font-weight:normal" x="983" y="922">+sx: float</text>
    <text font-size="12.8" style="fill: #000000;text-anchor:start;font-family:monospace;font-style:normal;font-weight:normal" x="983" y="938">+sy: float</text>
    <text font-size="12.8" style="fill: #000000;text-anchor:start;font-family:monospace;font-style:normal;font-weight:normal" x="983" y="954">+texture: object</text>
    <text font-size="12.8" style="fill: #000000;text-anchor:start;font-family:monospace;font-style:normal;font-weight:normal" x="983" y="970">+side: integer</text>
    <text font-size="12.8" style="fill: #000000;text-anchor:start;font-family:monospace;font-style:normal;font-weight:normal" x="983" y="986">+material: string</text>
    <rect style="fill: #ffffff" x="980" y="992" width="140.9" height="8"/>
    <rect style="fill: none; fill-opacity:0; stroke-width: 2; stroke: #000000" x="980" y="992" width="140.9" height="8"/>
  </g>
  <g>
    <rect style="fill: #ffffff" x="1160" y="880" width="110.1" height="28"/>
    <rect style="fill: none; fill-opacity:0; stroke-width: 2; stroke: #000000" x="1160" y="880" width="110.1" height="28"/>
    <text font-size="16" style="fill: #000000;text-anchor:middle;font-family:sans-serif;font-style:normal;font-weight:700" x="1215.05" y="899">meshfile</text>
    <rect style="fill: #ffffff" x="1160" y="908" width="110.1" height="20"/>
    <rect style="fill: none; fill-opacity:0; stroke-width: 2; stroke: #000000" x="1160" y="908" width="110.1" height="20"/>
    <text font-size="12.8" style="fill: #000000;text-anchor:start;font-family:monospace;font-style:normal;font-weight:normal" x="1163" y="922">+file: string</text>
    <rect style="fill: #ffffff" x="1160" y="928" width="110.1" height="8"/>
    <rect style="fill: none; fill-opacity:0; stroke-width: 2; stroke: #000000" x="1160" y="928" width="110.1" height="8"/>
  </g>
  <g>
    <rect style="fill: #ffffff" x="1300" y="880" width="233.3" height="28"/>
    <rect style="fill: none; fill-opacity:0; stroke-width: 2; stroke: #000000" x="1300" y="880" width="233.3" height="28"/>
    <text font-size="16" style="fill: #000000;text-anchor:middle;font-family:sans-serif;font-style:normal;font-weight:700" x="1416.65" y="899">video3d</text>
    <rect style="fill: #ffffff" x="1300" y="908" width="233.3" height="148"/>
    <rect style="fill: none; fill-opacity:0; stroke-width: 2; stroke: #000000" x="1300" y="908" width="233.3" height="148"/>
    <text font-size="12.8" style="fill: #000000;text-anchor:start;font-family:monospace;font-style:normal;font-weight:normal" x="1303" y="922">+playerSide: integer</text>
    <text font-size="12.8" style="fill: #000000;text-anchor:start;font-family:monospace;font-style:normal;font-weight:normal" x="1303" y="938">+makeMesh: function</text>
    <text font-size="12.8" style="fill: #000000;text-anchor:start;font-family:monospace;font-style:normal;font-weight:normal" x="1303" y="954">+videoPlaying: function</text>
    <text font-size="12.8" style="fill: #000000;text-anchor:start;font-family:monospace;font-style:normal;font-weight:normal" x="1303" y="970">+ccvLocked: function</text>
    <text font-size="12.8" style="fill: #000000;text-anchor:start;font-family:monospace;font-style:normal;font-weight:normal" x="1303" y="986">+ccv: boolean</text>
    <text font-size="12.8" style="fill: #000000;text-anchor:start;font-family:monospace;font-style:normal;font-weight:normal" x="1303" y="1002">+ccvMargin</text>
    <text font-size="12.8" style="fill: #000000;text-anchor:start;font-family:monospace;font-style:normal;font-weight:normal" x="1303" y="1018">+ccvWidth: float</text>
    <text font-size="12.8" style="fill: #000000;text-anchor:start;font-family:monospace;font-style:normal;font-weight:normal" x="1303" y="1034">+ccvHeight: float</text>
    <text font-size="12.8" style="fill: #000000;text-anchor:start;font-family:monospace;font-style:normal;font-weight:normal" x="1303" y="1050">+hideBeforeFirstLock: boolean</text>
    <rect style="fill: #ffffff" x="1300" y="1056" width="233.3" height="8"/>
    <rect style="fill: none; fill-opacity:0; stroke-width: 2; stroke: #000000" x="1300" y="1056" width="233.3" height="8"/>
  </g>
  <g>
    <rect style="fill: #ffffff" x="800" y="1000" width="156.3" height="28"/>
    <rect style="fill: none; fill-opacity:0; stroke-width: 2; stroke: #000000" x="800" y="1000" width="156.3" height="28"/>
    <text font-size="16" style="fill: #000000;text-anchor:middle;font-family:sans-serif;font-style:normal;font-weight:700" x="878.15" y="1019">videofile3d</text>
    <rect style="fill: #ffffff" x="800" y="1028" width="156.3" height="68"/>
    <rect style="fill: none; fill-opacity:0; stroke-width: 2; stroke: #000000" x="800" y="1028" width="156.3" height="68"/>
    <text font-size="12.8" style="fill: #000000;text-anchor:start;font-family:monospace;font-style:normal;font-weight:normal" x="803" y="1042">+src</text>
    <text font-size="12.8" style="fill: #000000;text-anchor:start;font-family:monospace;font-style:normal;font-weight:normal" x="803" y="1058">+width: float</text>
    <text font-size="12.8" style="fill: #000000;text-anchor:start;font-family:monospace;font-style:normal;font-weight:normal" x="803" y="1074">+height: float</text>
    <text font-size="12.8" style="fill: #000000;text-anchor:start;font-family:monospace;font-style:normal;font-weight:normal" x="803" y="1090">+makeMesh: function</text>
    <rect style="fill: #ffffff" x="800" y="1096" width="156.3" height="8"/>
    <rect style="fill: none; fill-opacity:0; stroke-width: 2; stroke: #000000" x="800" y="1096" width="156.3" height="8"/>
  </g>
  <g>
    <rect style="fill: #ffffff" x="1300" y="600" width="125.5" height="28"/>
    <rect style="fill: none; fill-opacity:0; stroke-width: 2; stroke: #000000" x="1300" y="600" width="125.5" height="28"/>
    <text font-size="16" style="fill: #000000;text-anchor:middle;font-family:sans-serif;font-style:normal;font-weight:700" x="1362.75" y="619">camera3d</text>
    <rect style="fill: #ffffff" x="1300" y="628" width="125.5" height="52"/>
    <rect style="fill: none; fill-opacity:0; stroke-width: 2; stroke: #000000" x="1300" y="628" width="125.5" height="52"/>
    <text font-size="12.8" style="fill: #000000;text-anchor:start;font-family:monospace;font-style:normal;font-weight:normal" x="1303" y="642">+targetX: float</text>
    <text font-size="12.8" style="fill: #000000;text-anchor:start;font-family:monospace;font-style:normal;font-weight:normal" x="1303" y="658">+targetY: float</text>
    <text font-size="12.8" style="fill: #000000;text-anchor:start;font-family:monospace;font-style:normal;font-weight:normal" x="1303" y="674">+targetZ: float</text>
    <rect style="fill: #ffffff" x="1300" y="680" width="125.5" height="8"/>
    <rect style="fill: none; fill-opacity:0; stroke-width: 2; stroke: #000000" x="1300" y="680" width="125.5" height="8"/>
  </g>
  <g>
    <polyline style="fill: none; fill-opacity:0; stroke-width: 2; stroke: #000000" points="967.387,259.244 967.387,296.999 1273.55,296.999 1273.55,336.991 "/>
    <polygon style="fill: #ffffff" points="975.387,259.244 967.387,243.244 959.388,259.244 "/>
    <polygon style="fill: none; fill-opacity:0; stroke-width: 2; stroke: #000000" points="975.387,259.244 967.387,243.244 959.388,259.244 "/>
  </g>
  <g>
    <polyline style="fill: none; fill-opacity:0; stroke-width: 2; stroke: #000000" points="1273.55,509.245 1273.55,553.002 1092.8,553.002 1092.8,598.994 "/>
    <polygon style="fill: #ffffff" points="1281.55,509.245 1273.55,493.245 1265.55,509.245 "/>
    <polygon style="fill: none; fill-opacity:0; stroke-width: 2; stroke: #000000" points="1281.55,509.245 1273.55,493.245 1265.55,509.245 "/>
  </g>
  <g>
    <polyline style="fill: none; fill-opacity:0; stroke-width: 2; stroke: #000000" points="1273.55,508.236 1273.55,552.497 1362.75,552.497 1362.75,598.995 "/>
    <polygon style="fill: #ffffff" points="1281.55,508.236 1273.55,492.236 1265.55,508.236 "/>
    <polygon style="fill: none; fill-opacity:0; stroke-width: 2; stroke: #000000" points="1281.55,508.236 1273.55,492.236 1265.55,508.236 "/>
  </g>
  <g>
    <polyline style="fill: none; fill-opacity:0; stroke-width: 2; stroke: #000000" points="1092.8,819.242 1092.8,847.999 1050.45,847.999 1050.45,878.993 "/>
    <polygon style="fill: #ffffff" points="1100.8,819.242 1092.8,803.242 1084.8,819.242 "/>
    <polygon style="fill: none; fill-opacity:0; stroke-width: 2; stroke: #000000" points="1100.8,819.242 1092.8,803.242 1084.8,819.242 "/>
  </g>
  <g>
    <polyline style="fill: none; fill-opacity:0; stroke-width: 2; stroke: #000000" points="1092.8,819.242 1092.8,848 1215.05,848 1215.05,878.993 "/>
    <polygon style="fill: #ffffff" points="1100.8,819.242 1092.8,803.242 1084.8,819.242 "/>
    <polygon style="fill: none; fill-opacity:0; stroke-width: 2; stroke: #000000" points="1100.8,819.242 1092.8,803.242 1084.8,819.242 "/>
  </g>
  <g>
    <polyline style="fill: none; fill-opacity:0; stroke-width: 2; stroke: #000000" points="1092.8,819.242 1092.8,848 1416.65,848 1416.65,878.994 "/>
    <polygon style="fill: #ffffff" points="1100.8,819.242 1092.8,803.242 1084.8,819.242 "/>
    <polygon style="fill: none; fill-opacity:0; stroke-width: 2; stroke: #000000" points="1100.8,819.242 1092.8,803.242 1084.8,819.242 "/>
  </g>
  <g>
    <polyline style="fill: none; fill-opacity:0; stroke-width: 2; stroke: #000000" points="1092.8,819.242 1092.8,847.999 854.3,847.999 854.3,878.991 "/>
    <polygon style="fill: #ffffff" points="1100.8,819.242 1092.8,803.242 1084.8,819.242 "/>
    <polygon style="fill: none; fill-opacity:0; stroke-width: 2; stroke: #000000" points="1100.8,819.242 1092.8,803.242 1084.8,819.242 "/>
  </g>
  <g>
    <polyline style="fill: none; fill-opacity:0; stroke-width: 2; stroke: #000000" points="854.3,971.245 854.3,984.001 878.15,984.001 878.15,998.994 "/>
    <polygon style="fill: #ffffff" points="862.3,971.245 854.3,955.245 846.3,971.245 "/>
    <polygon style="fill: none; fill-opacity:0; stroke-width: 2; stroke: #000000" points="862.3,971.245 854.3,955.245 846.3,971.245 "/>
  </g>
</svg>
